<svg width="366" height="250" viewBox="0 0 366 250" fill="none" xmlns="http://www.w3.org/2000/svg">
<g clip-path="url(#clip0_1_2660)">
<path d="M337.685 232.321C337.647 232.423 337.569 232.506 337.469 232.552C337.37 232.598 337.256 232.602 337.154 232.564L8.74005 110.359C8.63757 110.321 8.55451 110.243 8.50908 110.144C8.46366 110.044 8.45958 109.931 8.49775 109.828C8.53591 109.726 8.6132 109.642 8.71266 109.597C8.81212 109.551 8.92562 109.547 9.02827 109.585L337.442 231.789C337.544 231.828 337.627 231.905 337.673 232.005C337.719 232.104 337.723 232.218 337.685 232.321Z" fill="#F2F2F2"/>
<path d="M162.742 0H84.4855C78.3468 0.00694607 72.4614 2.44864 68.1207 6.7894C63.7799 11.1302 61.3382 17.0155 61.3313 23.1543V30.2277C61.1707 30.1835 61.002 30.1772 60.8385 30.2094C60.6751 30.2416 60.5213 30.3113 60.3894 30.4131C60.2576 30.5148 60.1512 30.6459 60.0786 30.7958C60.006 30.9458 59.9693 31.1106 59.9714 31.2771V36.7166C59.9693 36.8832 60.006 37.048 60.0786 37.1979C60.1512 37.3479 60.2576 37.4789 60.3894 37.5807C60.5213 37.6825 60.6751 37.7522 60.8385 37.7844C61.002 37.8166 61.1707 37.8103 61.3313 37.7661V46.0023C61.1707 45.958 61.002 45.9518 60.8385 45.9839C60.6751 46.0161 60.5213 46.0858 60.3894 46.1876C60.2575 46.2894 60.1511 46.4204 60.0786 46.5704C60.006 46.7203 59.9693 46.8851 59.9714 47.0517V60.6504C59.9693 60.817 60.006 60.9818 60.0786 61.1318C60.1511 61.2817 60.2575 61.4128 60.3894 61.5145C60.5213 61.6163 60.6751 61.686 60.8385 61.7182C61.002 61.7504 61.1707 61.7441 61.3313 61.6999V66.6724C61.1707 66.6281 61.002 66.6219 60.8385 66.654C60.6751 66.6862 60.5213 66.7559 60.3894 66.8577C60.2575 66.9595 60.1511 67.0905 60.0786 67.2405C60.006 67.3904 59.9693 67.5552 59.9714 67.7218V81.3206C59.9693 81.4871 60.006 81.6519 60.0786 81.8019C60.1511 81.9518 60.2575 82.0829 60.3894 82.1847C60.5213 82.2864 60.6751 82.3562 60.8385 82.3883C61.002 82.4205 61.1707 82.4142 61.3313 82.37V225.975C61.3382 232.114 63.7799 237.999 68.1207 242.34C72.4614 246.68 78.3468 249.122 84.4855 249.129H162.742C168.88 249.122 174.766 246.68 179.106 242.34C183.447 237.999 185.889 232.114 185.896 225.975V23.1543C185.889 17.0155 183.447 11.1302 179.106 6.7894C174.766 2.44864 168.88 0.00694607 162.742 0ZM181 225.975C180.995 230.816 179.069 235.457 175.646 238.88C172.223 242.303 167.582 244.228 162.742 244.233H84.4855C79.6447 244.228 75.0037 242.303 71.5807 238.88C68.1578 235.457 66.2323 230.816 66.2269 225.975V23.1543C66.2323 18.3134 68.1578 13.6725 71.5807 10.2495C75.0037 6.82648 79.6447 4.90104 84.4855 4.89555H162.742C167.582 4.90103 172.223 6.82648 175.646 10.2495C179.069 13.6724 180.995 18.3134 181 23.1543V225.975Z" fill="#3F3D56"/>
<path d="M162.742 246.953H84.4855C78.9236 246.947 73.5913 244.735 69.6585 240.802C65.7256 236.869 63.5134 231.537 63.5071 225.975V23.1542C63.5134 17.5923 65.7256 12.2601 69.6585 8.3272C73.5913 4.39435 78.9236 2.18209 84.4855 2.17578H162.742C168.303 2.18209 173.636 4.39434 177.569 8.3272C181.501 12.2601 183.714 17.5923 183.72 23.1542V225.975C183.714 231.537 181.501 236.869 177.569 240.802C173.636 244.735 168.303 246.947 162.742 246.953Z" fill="#E6E6E6"/>
<path d="M164.675 243.689H82.5518C78.8005 243.685 75.2041 242.193 72.5516 239.541C69.899 236.888 68.4069 233.292 68.4026 229.54V19.5885C68.4069 15.8373 69.899 12.2409 72.5515 9.58833C75.2041 6.93579 78.8005 5.44372 82.5517 5.43947H93.2616C93.8816 5.44018 94.476 5.68679 94.9144 6.12522C95.3528 6.56364 95.5994 7.15806 95.6001 7.77808C95.6022 9.60971 96.3307 11.3657 97.6259 12.6609C98.921 13.9561 100.677 14.6846 102.509 14.6866H143.63C145.462 14.6846 147.218 13.9561 148.513 12.6609C149.808 11.3657 150.537 9.6097 150.539 7.77806C150.54 7.15805 150.786 6.56363 151.225 6.12521C151.663 5.68679 152.258 5.44017 152.878 5.43945H164.675C168.427 5.44371 172.023 6.93577 174.676 9.58831C177.328 12.2409 178.82 15.8373 178.824 19.5885V229.54C178.82 233.292 177.328 236.888 174.676 239.541C172.023 242.193 168.427 243.685 164.675 243.689Z" fill="white"/>
<path d="M127.149 10.1991H117.358C117.07 10.1991 116.793 10.0845 116.589 9.88048C116.385 9.67646 116.27 9.39975 116.27 9.11122C116.27 8.82269 116.385 8.54597 116.589 8.34195C116.793 8.13793 117.07 8.02332 117.358 8.02332H127.149C127.438 8.02332 127.714 8.13793 127.919 8.34195C128.123 8.54597 128.237 8.82269 128.237 9.11122C128.237 9.39975 128.123 9.67646 127.919 9.88048C127.714 10.0845 127.438 10.1991 127.149 10.1991Z" fill="white"/>
<path d="M133.949 9.92713C134.249 9.92713 134.493 9.6836 134.493 9.38318C134.493 9.08277 134.249 8.83923 133.949 8.83923C133.648 8.83923 133.405 9.08277 133.405 9.38318C133.405 9.6836 133.648 9.92713 133.949 9.92713Z" fill="white"/>
<path d="M181.47 47.9338H65.6489V49.1735H181.47V47.9338Z" fill="#E6E6E6"/>
<path d="M181.47 72.7273H65.6489V73.967H181.47V72.7273Z" fill="#E6E6E6"/>
<path d="M181.47 123.967H65.6489V125.207H181.47V123.967Z" fill="#E6E6E6"/>
<path d="M181.47 175.207H65.6489V176.446H181.47V175.207Z" fill="#E6E6E6"/>
<path d="M181.47 215.289H65.6489V216.529H181.47V215.289Z" fill="#E6E6E6"/>
<path d="M149.761 48.5537H148.521V124.587H149.761V48.5537Z" fill="#E6E6E6"/>
<path d="M91.7796 124.565H90.5399V215.909H91.7796V124.565Z" fill="#E6E6E6"/>
<path d="M178.824 149.621H91.1597V150.861H178.824V149.621Z" fill="#E6E6E6"/>
<path d="M149.894 215.909H148.655V243.689H149.894V215.909Z" fill="#E6E6E6"/>
<path d="M148.935 98.8547H68.196V100.094H148.935V98.8547Z" fill="#E6E6E6"/>
<path d="M85.0573 4.65617L83.9137 5.13477L102.184 48.793L103.328 48.3144L85.0573 4.65617Z" fill="#E6E6E6"/>
<path d="M141.327 14.6865H140.088V48.5537H141.327V14.6865Z" fill="#E6E6E6"/>
<path d="M173.293 67.3554C173.293 78.4629 156.12 104.345 151.101 111.672C150.95 111.894 150.747 112.075 150.51 112.2C150.272 112.325 150.008 112.391 149.74 112.391C149.471 112.391 149.207 112.325 148.97 112.2C148.733 112.075 148.529 111.894 148.378 111.672C143.359 104.345 126.186 78.4629 126.186 67.3554C126.186 61.1085 128.668 55.1175 133.085 50.7004C137.502 46.2832 143.493 43.8016 149.74 43.8016C155.987 43.8016 161.978 46.2832 166.395 50.7004C170.812 55.1175 173.293 61.1085 173.293 67.3554Z" fill="#00AFB9"/>
<path d="M149.74 77.6859C156.358 77.6859 161.723 72.3208 161.723 65.7025C161.723 59.0842 156.358 53.719 149.74 53.719C143.122 53.719 137.756 59.0842 137.756 65.7025C137.756 72.3208 143.122 77.6859 149.74 77.6859Z" fill="white"/>
<path d="M148.955 124.943L103.572 215.618L104.681 216.172L150.063 125.498L148.955 124.943Z" fill="#E6E6E6"/>
<path d="M214.314 144.888C214.849 145.176 215.44 145.343 216.047 145.377C216.653 145.411 217.26 145.312 217.824 145.087C218.388 144.861 218.896 144.515 219.311 144.072C219.727 143.629 220.041 143.1 220.23 142.523L234.994 142.267L230.659 135.935L217.304 137.149C216.313 136.895 215.263 137.014 214.354 137.482C213.445 137.951 212.739 138.736 212.371 139.69C212.002 140.644 211.996 141.701 212.354 142.659C212.713 143.617 213.41 144.41 214.314 144.888Z" fill="#FFB8B8"/>
<path d="M223.177 144.704C222.948 144.704 222.722 144.658 222.511 144.568C222.301 144.478 222.111 144.346 221.952 144.181C221.794 144.016 221.671 143.82 221.591 143.606C221.51 143.392 221.474 143.164 221.484 142.935L221.782 136.165C221.798 135.762 221.958 135.378 222.233 135.083C222.509 134.787 222.88 134.601 223.281 134.556L240.385 132.595L239.812 143.876L223.261 144.702C223.233 144.703 223.205 144.704 223.177 144.704Z" fill="#00AFB9"/>
<path d="M244.007 237.502L239.192 239.075L230.833 221.248L237.941 218.927L244.007 237.502Z" fill="#FFB8B8"/>
<path d="M246.76 241.769L231.233 246.84L231.169 246.644C230.909 245.85 230.809 245.013 230.873 244.181C230.937 243.348 231.165 242.537 231.543 241.792C231.921 241.048 232.442 240.385 233.076 239.842C233.71 239.298 234.444 238.885 235.238 238.626L244.722 235.529L246.76 241.769Z" fill="#2F2E41"/>
<path d="M258.192 244.957L253.126 244.957L250.716 225.416L258.193 225.417L258.192 244.957Z" fill="#FFB8B8"/>
<path d="M259.484 249.868L243.149 249.867V249.661C243.149 248.826 243.313 247.999 243.633 247.227C243.952 246.456 244.421 245.755 245.011 245.165C245.601 244.574 246.302 244.106 247.074 243.787C247.845 243.467 248.672 243.303 249.507 243.303H249.507L259.484 243.303L259.484 249.868Z" fill="#2F2E41"/>
<path d="M250.497 240.201C250.083 240.201 249.683 240.048 249.374 239.773C249.064 239.498 248.866 239.12 248.816 238.708L242.284 184.103L232.723 199.451L243.942 228.119C244.094 228.515 244.093 228.954 243.939 229.35C243.785 229.746 243.489 230.07 243.109 230.259L233.592 234.916C233.375 235.022 233.138 235.08 232.896 235.087C232.654 235.094 232.414 235.049 232.191 234.956C231.968 234.862 231.768 234.721 231.604 234.544C231.439 234.366 231.315 234.156 231.239 233.926L220.693 202.063C219.898 199.665 219.795 197.092 220.393 194.638L227.213 166.654L227.293 166.61L242.664 158.19L242.752 158.223L260.854 164.83L258.96 200.705L260.336 237.94C260.355 238.382 260.199 238.814 259.902 239.142C259.605 239.47 259.19 239.668 258.748 239.693L250.603 240.198C250.568 240.2 250.532 240.201 250.497 240.201Z" fill="#2F2E41"/>
<path d="M240.526 177.287C237.821 177.287 235.542 176.517 234.117 174.559L234.071 174.496L234.993 164.816L226.789 169.37C226.619 169.464 226.424 169.504 226.23 169.484C226.037 169.465 225.854 169.386 225.707 169.259C225.559 169.131 225.455 168.962 225.406 168.774C225.358 168.585 225.369 168.386 225.438 168.204L235.67 141.031L242.426 118.896C242.761 117.124 243.626 115.496 244.907 114.227C246.188 112.958 247.824 112.108 249.599 111.79C255.618 110.684 259.202 112.715 263.341 117.222C264.342 118.318 265.08 119.629 265.497 121.054C265.914 122.479 266 123.98 265.749 125.443L261.833 147.824L262.984 167.89C263.072 168.236 263.048 168.601 262.916 168.933C262.784 169.264 262.551 169.546 262.249 169.737C259.049 171.774 249.236 177.287 240.526 177.287Z" fill="#00AFB9"/>
<path d="M254.218 108.438C259.823 108.438 264.367 103.894 264.367 98.2892C264.367 92.684 259.823 88.14 254.218 88.14C248.613 88.14 244.069 92.684 244.069 98.2892C244.069 103.894 248.613 108.438 254.218 108.438Z" fill="#FFB8B8"/>
<path d="M256.862 170.635C257.414 170.382 257.904 170.011 258.297 169.548C258.69 169.085 258.977 168.541 259.138 167.955C259.298 167.37 259.328 166.756 259.226 166.157C259.123 165.558 258.891 164.989 258.544 164.49L267.249 152.562L259.584 152.198L252.493 163.581C251.693 164.218 251.155 165.127 250.98 166.134C250.805 167.142 251.006 168.179 251.544 169.049C252.083 169.918 252.921 170.56 253.902 170.852C254.882 171.145 255.935 171.068 256.862 170.635Z" fill="#FFB8B8"/>
<path d="M261.576 163.904C261.151 163.965 260.719 163.862 260.367 163.617L254.605 159.598C254.258 159.359 254.014 158.998 253.92 158.587C253.826 158.177 253.889 157.746 254.097 157.379L264.356 139.127L254.038 126.707C253.496 126.055 253.096 125.297 252.863 124.481C252.63 123.666 252.569 122.811 252.685 121.971C252.8 121.131 253.089 120.324 253.534 119.602C253.978 118.88 254.568 118.258 255.266 117.777C255.963 117.295 256.754 116.963 257.586 116.804C258.419 116.644 259.276 116.66 260.102 116.849C260.929 117.039 261.707 117.398 262.387 117.905C263.067 118.411 263.634 119.054 264.052 119.792L275.444 139.9C275.525 140.043 275.567 140.204 275.567 140.369C275.567 140.533 275.524 140.695 275.444 140.838L262.809 163.064C262.692 163.269 262.535 163.447 262.345 163.588C262.156 163.728 261.94 163.827 261.71 163.879C261.665 163.89 261.621 163.898 261.576 163.904Z" fill="#00AFB9"/>
<path d="M250.162 96.9936C249.158 96.2438 247.767 96.3608 246.577 95.9678C245.868 95.7338 245.233 95.3176 244.736 94.7609C244.239 94.2042 243.897 93.5267 243.745 92.7962C243.592 92.0657 243.635 91.3079 243.867 90.5988C244.1 89.8898 244.515 89.2543 245.071 88.7563C246.356 87.6044 248.185 87.343 249.898 87.1323C252.245 86.8435 254.615 86.5544 256.968 86.784C259.322 87.0135 261.691 87.8085 263.411 89.4309C265.308 91.2198 266.242 93.8827 266.248 96.4899C266.182 99.1093 265.463 101.671 264.156 103.942C263.752 104.805 263.143 105.556 262.383 106.129C261.591 106.652 260.475 106.789 259.713 106.224C259.054 105.737 258.813 104.882 258.515 104.118C258.217 103.354 257.709 102.541 256.898 102.423C255.853 102.271 255.056 103.334 254.059 103.681C252.665 104.167 251.116 103.092 250.547 101.729C249.978 100.367 250.128 98.8246 250.288 97.3565" fill="#2F2E41"/>
<path d="M339.62 249.587C339.62 249.696 339.576 249.801 339.498 249.879C339.421 249.956 339.316 250 339.207 250H-11.2066C-11.3162 250 -11.4213 249.956 -11.4988 249.879C-11.5763 249.801 -11.6198 249.696 -11.6198 249.587C-11.6198 249.477 -11.5763 249.372 -11.4988 249.295C-11.4213 249.217 -11.3162 249.174 -11.2066 249.174H339.207C339.316 249.174 339.421 249.218 339.498 249.295C339.576 249.372 339.62 249.477 339.62 249.587Z" fill="#CCCCCC"/>
<path d="M149.74 129.752C152.707 129.752 155.112 127.347 155.112 124.38C155.112 121.413 152.707 119.008 149.74 119.008C146.773 119.008 144.368 121.413 144.368 124.38C144.368 127.347 146.773 129.752 149.74 129.752Z" fill="#00AFB9"/>
<path d="M225.368 65.6451C223.124 68.6351 213.273 72.1337 210.443 73.0923C210.357 73.1213 210.266 73.129 210.177 73.1148C210.088 73.1006 210.003 73.0648 209.931 73.0106C209.859 72.9565 209.801 72.8855 209.762 72.8038C209.724 72.7222 209.706 72.6324 209.71 72.5422C209.838 69.5562 210.443 59.1203 212.687 56.1303C213.949 54.4487 215.827 53.3373 217.908 53.0404C219.989 52.7435 222.103 53.2856 223.785 54.5473C225.466 55.8091 226.578 57.6872 226.875 59.7684C227.171 61.8496 226.629 63.9635 225.368 65.6451Z" fill="#F2F2F2"/>
<path d="M219.361 64.4757C221.588 64.4757 223.394 62.6701 223.394 60.4428C223.394 58.2155 221.588 56.4099 219.361 56.4099C217.134 56.4099 215.328 58.2155 215.328 60.4428C215.328 62.6701 217.134 64.4757 219.361 64.4757Z" fill="white"/>
<path d="M207.509 78.0459C208.508 78.0459 209.317 77.2365 209.317 76.238C209.317 75.2396 208.508 74.4302 207.509 74.4302C206.511 74.4302 205.702 75.2396 205.702 76.238C205.702 77.2365 206.511 78.0459 207.509 78.0459Z" fill="#F2F2F2"/>
<path d="M28.7426 147.661C32.0439 152.705 31.9384 169.562 31.8371 174.381C31.8341 174.526 31.7957 174.669 31.7252 174.796C31.6547 174.924 31.5541 175.032 31.4323 175.112C31.3105 175.192 31.171 175.24 31.0261 175.254C30.8811 175.268 30.735 175.246 30.6004 175.19C26.1439 173.355 10.653 166.706 7.35167 161.662C6.43107 160.258 5.79625 158.686 5.48348 157.036C5.17071 155.386 5.18613 153.69 5.52885 152.046C5.87157 150.402 6.53487 148.842 7.48086 147.454C8.42685 146.067 9.63699 144.879 11.0421 143.96C12.4472 143.04 14.0198 142.406 15.67 142.094C17.3202 141.783 19.0156 141.799 20.6594 142.143C22.3032 142.487 23.8631 143.151 25.25 144.098C26.637 145.045 27.8238 146.256 28.7426 147.661Z" fill="#F2F2F2"/>
<path d="M17.5558 160.415C21.1476 160.415 24.0594 157.503 24.0594 153.911C24.0594 150.319 21.1476 147.408 17.5558 147.408C13.964 147.408 11.0523 150.319 11.0523 153.911C11.0523 157.503 13.964 160.415 17.5558 160.415Z" fill="white"/>
<path d="M34.9958 183.471C36.6059 183.471 37.9111 182.166 37.9111 180.556C37.9111 178.946 36.6059 177.641 34.9958 177.641C33.3856 177.641 32.0804 178.946 32.0804 180.556C32.0804 182.166 33.3856 183.471 34.9958 183.471Z" fill="#F2F2F2"/>
</g>
<defs>
<clipPath id="clip0_1_2660">
<rect width="328" height="250" fill="white"/>
</clipPath>
</defs>
</svg>
